<?xml version="1.0" encoding="UTF-8"?>
<svg width="32px" height="32px" viewBox="0 0 32 32" version="1.1" xmlns="http://www.w3.org/2000/svg" xmlns:xlink="http://www.w3.org/1999/xlink">
    <!-- Generator: Sketch 52.5 (67469) - http://www.bohemiancoding.com/sketch -->
    <title>menu</title>
    <desc>Created with Sketch.</desc>
    <g id="menu" stroke="none" stroke-width="1" fill="none" fill-rule="evenodd">
        <path d="M6.125,7 L25.875,7 C26.4963203,7 27,7.50367966 27,8.125 C27,8.74632034 26.4963203,9.25 25.875,9.25 L6.125,9.25 C5.50367966,9.25 5,8.74632034 5,8.125 C5,7.50367966 5.50367966,7 6.125,7 Z M6.125,14.875 L25.875,14.875 C26.4963203,14.875 27,15.3786797 27,16 C27,16.6213203 26.4963203,17.125 25.875,17.125 L6.125,17.125 C5.50367966,17.125 5,16.6213203 5,16 C5,15.3786797 5.50367966,14.875 6.125,14.875 Z M6.125,22.75 L25.875,22.75 C26.4963203,22.75 27,23.2536797 27,23.875 C27,24.4963203 26.4963203,25 25.875,25 L6.125,25 C5.50367966,25 5,24.4963203 5,23.875 C5,23.2536797 5.50367966,22.75 6.125,22.75 Z" id="Menu" fill="#000000" fill-rule="nonzero"></path>
    </g>
</svg>