<?xml version="1.0" encoding="UTF-8"?>
<svg width="32px" height="32px" viewBox="0 0 32 32" version="1.1" xmlns="http://www.w3.org/2000/svg" xmlns:xlink="http://www.w3.org/1999/xlink">
    <!-- Generator: Sketch 52.5 (67469) - http://www.bohemiancoding.com/sketch -->
    <title>shopping-bag</title>
    <desc>Created with Sketch.</desc>
    <g id="shopping-bag" stroke="none" stroke-width="1" fill="none" fill-rule="evenodd">
        <path d="M21.4988085,9.57646968 L24.7334018,9.57646968 C25.2438829,9.57519452 25.6680475,9.97692684 25.7037797,10.4955284 L26.997617,28.9425854 C27.016488,29.2164469 26.9226452,29.4859609 26.7385787,29.6865364 C26.5545122,29.8871119 26.2968125,30.0006705 26.0272391,29.999997 L5.97276093,29.999997 C5.70318754,30.0006705 5.4454878,29.8871119 5.26142128,29.6865364 C5.07735476,29.4859609 4.98351195,29.2164469 5.00238296,28.9425854 L6.29622026,10.4955284 C6.33195251,9.97692684 6.75611712,9.57519452 7.26659823,9.57646968 L10.5011915,9.57646968 L10.5011915,7.59999929 C10.5011916,4.50720506 12.963092,2 16,2 C19.036908,2 21.4988084,4.50720506 21.4988085,7.59999929 L21.4988085,9.57646968 Z M19.5580526,9.57646968 L19.5580526,7.59999929 C19.5580526,5.59877946 17.9650582,3.97647024 16,3.97647024 C14.0349418,3.97647024 12.4419474,5.59877946 12.4419474,7.59999929 L12.4419474,9.57646968 L19.5580526,9.57646968 Z M21.4988085,11.5529401 L21.4988085,15.5058808 C21.4988085,16.0516681 21.0643555,16.494116 20.5284305,16.494116 C19.9925056,16.494116 19.5580526,16.0516681 19.5580526,15.5058808 L19.5580526,11.5529401 L12.4419474,11.5529401 L12.4419474,15.5058808 C12.4419474,16.0516681 12.0074944,16.494116 11.4715695,16.494116 C10.9356445,16.494116 10.5011915,16.0516681 10.5011915,15.5058808 L10.5011915,11.5529401 L8.16904975,11.5529401 L7.01429996,28.0235266 L24.9857,28.0235266 L23.8309503,11.5529401 L21.4988085,11.5529401 Z" id="Shopping-Bag" fill="#000000" fill-rule="nonzero"></path>
    </g>
</svg>